<svg width="1376" height="862" viewBox="0 0 1376 862" fill="none" xmlns="http://www.w3.org/2000/svg">
<path d="M927.5 250V151H530C470.906 151 423 198.906 423 258V547C423 606.094 470.906 654 530 654H927.5L928 554.5H522.772L522.052 452.8H925V356H522.272V250H927.5Z" fill="#454156"/>
<path d="M382.5 150L382 8.5L7 391H139.5L382.5 150Z" fill="#7FBEEB"/>
<path d="M0 398.5L7 391H139.5L382.5 629.434V784.5L0 398.5Z" fill="#ACECFD"/>
<path d="M993.5 634.5L994 776L1369 393.5H1236.5L993.5 634.5Z" fill="#7FBEEB"/>
<path d="M1376 386L1369 393.5H1236.5L993.5 155.066V0L1376 386Z" fill="#ACECFD"/>
<path d="M306 554.5L790.5 250H1090.5L606.5 554.5H306Z" fill="#ACECFD"/>
<path d="M576.5 741V712H458.5C441.379 712 427.5 725.879 427.5 743V831C427.5 848.121 441.379 862 458.5 862H576.5V833H455.5L455.434 802H576.5V774H455.5V741H576.5Z" fill="#454156"/>
<path d="M757.5 741V712H639.5C622.379 712 608.5 725.879 608.5 743V831C608.5 848.121 622.379 862 639.5 862H757.5V833H636.5V741H757.5Z" fill="#454156"/>
<path d="M937.5 741V712H819.5C802.379 712 788.5 725.879 788.5 743V831C788.5 848.121 802.379 862 819.5 862H937.5V833H816.5V741H937.5Z" fill="#454156"/>
</svg>
